<mxfile modified="2021-09-16T14:38:56.514Z" host="app.diagrams.net" agent="5.0 (Windows NT 10.0; Win64; x64) AppleWebKit/537.36 (KHTML, like Gecko) Chrome/93.0.4577.63 Safari/537.36" etag="mVrFsXvb7Zl8xbpBppVA" version="15.2.7" type="github">
  <diagram id="Ht1M8jgEwFfnCIfOTk4-" name="Page-1">
    <mxGraphModel dx="1730" dy="912" grid="1" gridSize="10" guides="1" tooltips="1" connect="1" arrows="1" fold="1" page="1" pageScale="1" pageWidth="1169" pageHeight="827" math="0" shadow="0">
      <root>
        <mxCell id="0" />
        <mxCell id="1" parent="0" />
        <mxCell id="lZyyrw_v1k-XXsasgZWi-5" value="&lt;font style=&quot;font-size: 20px;&quot;&gt;거래서비스 EC2&amp;nbsp;&lt;/font&gt;" style="points=[[0,0],[0.25,0],[0.5,0],[0.75,0],[1,0],[1,0.25],[1,0.5],[1,0.75],[1,1],[0.75,1],[0.5,1],[0.25,1],[0,1],[0,0.75],[0,0.5],[0,0.25]];outlineConnect=0;gradientColor=none;html=1;whiteSpace=wrap;fontSize=20;fontStyle=1;shape=mxgraph.aws4.group;grIcon=mxgraph.aws4.group_ec2_instance_contents;strokeColor=#D86613;fillColor=none;verticalAlign=top;align=left;spacingLeft=30;fontColor=#D86613;dashed=0;" vertex="1" parent="1">
          <mxGeometry x="474.53" y="610" width="193.25" height="260" as="geometry" />
        </mxCell>
        <mxCell id="lZyyrw_v1k-XXsasgZWi-48" value="AWS Cloud" style="points=[[0,0],[0.25,0],[0.5,0],[0.75,0],[1,0],[1,0.25],[1,0.5],[1,0.75],[1,1],[0.75,1],[0.5,1],[0.25,1],[0,1],[0,0.75],[0,0.5],[0,0.25]];outlineConnect=0;gradientColor=none;html=1;whiteSpace=wrap;fontSize=12;fontStyle=0;shape=mxgraph.aws4.group;grIcon=mxgraph.aws4.group_aws_cloud_alt;strokeColor=#232F3E;fillColor=none;verticalAlign=top;align=left;spacingLeft=30;fontColor=#232F3E;dashed=0;strokeWidth=3;" vertex="1" parent="1">
          <mxGeometry x="126.23" y="363" width="991.55" height="717" as="geometry" />
        </mxCell>
        <mxCell id="-QjtrjUzRDEMRZ5MF8oH-27" value="2" style="rounded=1;whiteSpace=wrap;html=1;fillColor=#007CBD;strokeColor=none;fontColor=#FFFFFF;fontStyle=1;fontSize=22;" parent="1" vertex="1">
          <mxGeometry x="478.65" y="640" width="40" height="38" as="geometry" />
        </mxCell>
        <mxCell id="-QjtrjUzRDEMRZ5MF8oH-47" value="TradingBot" style="text;html=1;resizable=0;points=[];autosize=1;align=left;verticalAlign=top;spacingTop=-4;fontSize=30;fontStyle=1" parent="1" vertex="1">
          <mxGeometry x="52.5" y="80" width="170" height="40" as="geometry" />
        </mxCell>
        <mxCell id="SCVMTBWpLvtzJIhz15lM-1" value="" style="line;strokeWidth=2;html=1;fontSize=14;" parent="1" vertex="1">
          <mxGeometry x="52.5" y="139.5" width="1060" height="10" as="geometry" />
        </mxCell>
        <mxCell id="7OVz4w7n9kzEPWy-4BBC-3" value="" style="rounded=0;whiteSpace=wrap;html=1;fillColor=#EAEDED;fontSize=22;fontColor=#FFFFFF;strokeColor=none;labelBackgroundColor=none;" parent="1" vertex="1">
          <mxGeometry x="1350" y="51" width="539" height="1049" as="geometry" />
        </mxCell>
        <mxCell id="7OVz4w7n9kzEPWy-4BBC-4" value="1" style="rounded=1;whiteSpace=wrap;html=1;fillColor=#007CBD;strokeColor=none;fontColor=#FFFFFF;fontStyle=1;fontSize=22;labelBackgroundColor=none;" parent="1" vertex="1">
          <mxGeometry x="1368" y="63" width="40" height="38" as="geometry" />
        </mxCell>
        <mxCell id="7OVz4w7n9kzEPWy-4BBC-5" value="2" style="rounded=1;whiteSpace=wrap;html=1;fillColor=#007CBD;strokeColor=none;fontColor=#FFFFFF;fontStyle=1;fontSize=22;labelBackgroundColor=none;" parent="1" vertex="1">
          <mxGeometry x="1366.5" y="185" width="40" height="38" as="geometry" />
        </mxCell>
        <mxCell id="7OVz4w7n9kzEPWy-4BBC-6" value="3" style="rounded=1;whiteSpace=wrap;html=1;fillColor=#007CBD;strokeColor=none;fontColor=#FFFFFF;fontStyle=1;fontSize=22;labelBackgroundColor=none;" parent="1" vertex="1">
          <mxGeometry x="1366.5" y="305" width="40" height="38" as="geometry" />
        </mxCell>
        <mxCell id="7OVz4w7n9kzEPWy-4BBC-13" value="&lt;span&gt;회원 서비스: 회원가입, 로그인, API 인증 관리 담당&lt;/span&gt;" style="text;html=1;align=left;verticalAlign=top;spacingTop=-4;fontSize=14;labelBackgroundColor=none;whiteSpace=wrap;" parent="1" vertex="1">
          <mxGeometry x="1419.5" y="62.5" width="449" height="118" as="geometry" />
        </mxCell>
        <mxCell id="7OVz4w7n9kzEPWy-4BBC-14" value="&lt;span&gt;거래 서비스: 트레이딩 봇 설정, 트레이딩 봇 거래로직 수행&lt;/span&gt;" style="text;html=1;align=left;verticalAlign=top;spacingTop=-4;fontSize=14;labelBackgroundColor=none;whiteSpace=wrap;" parent="1" vertex="1">
          <mxGeometry x="1418.5" y="185.5" width="450" height="115" as="geometry" />
        </mxCell>
        <mxCell id="7OVz4w7n9kzEPWy-4BBC-15" value="&lt;span&gt;암호화폐 정보관리 서비스: Ticker 정보 취득, 이동평균선 계산, 거래서비스로 이동평균선 전달&lt;/span&gt;" style="text;html=1;align=left;verticalAlign=top;spacingTop=-4;fontSize=14;labelBackgroundColor=none;whiteSpace=wrap;" parent="1" vertex="1">
          <mxGeometry x="1418.5" y="303.5" width="450" height="117" as="geometry" />
        </mxCell>
        <mxCell id="lZyyrw_v1k-XXsasgZWi-6" value="MariaDB" style="sketch=0;outlineConnect=0;fontColor=#232F3E;gradientColor=none;fillColor=#527FFF;strokeColor=none;dashed=0;verticalLabelPosition=bottom;verticalAlign=top;align=center;html=1;fontSize=14;fontStyle=1;aspect=fixed;pointerEvents=1;shape=mxgraph.aws4.rds_instance;" vertex="1" parent="1">
          <mxGeometry x="534.4" y="899.5" width="78" height="78" as="geometry" />
        </mxCell>
        <mxCell id="lZyyrw_v1k-XXsasgZWi-8" value="Bithumb API&#xa;Web Socket" style="rounded=1;arcSize=10;strokeColor=none;fillColor=#DBDBDB;gradientColor=none;fontStyle=1;fontSize=14;" vertex="1" parent="1">
          <mxGeometry x="516.4" y="795" width="109.5" height="60" as="geometry" />
        </mxCell>
        <mxCell id="lZyyrw_v1k-XXsasgZWi-13" value="Kafka&#xa;Subscriber" style="rounded=1;arcSize=10;strokeColor=none;fillColor=#DBDBDB;gradientColor=none;fontStyle=1;fontSize=14;" vertex="1" parent="1">
          <mxGeometry x="518.65" y="730" width="109.5" height="60" as="geometry" />
        </mxCell>
        <mxCell id="lZyyrw_v1k-XXsasgZWi-14" value="&lt;b&gt;&lt;font style=&quot;font-size: 14px&quot;&gt;ECS&lt;/font&gt;&lt;/b&gt;" style="sketch=0;outlineConnect=0;fontColor=#232F3E;gradientColor=none;fillColor=#FF9900;strokeColor=none;dashed=0;verticalLabelPosition=bottom;verticalAlign=top;align=center;html=1;fontSize=12;fontStyle=0;aspect=fixed;pointerEvents=1;shape=mxgraph.aws4.ecs_anywhere;" vertex="1" parent="1">
          <mxGeometry x="140.9" y="417" width="97.16" height="106" as="geometry" />
        </mxCell>
        <mxCell id="lZyyrw_v1k-XXsasgZWi-15" value="&lt;font style=&quot;font-size: 20px&quot;&gt;암호화폐&lt;br&gt;정보관리 서비스 EC2&amp;nbsp;&lt;/font&gt;" style="points=[[0,0],[0.25,0],[0.5,0],[0.75,0],[1,0],[1,0.25],[1,0.5],[1,0.75],[1,1],[0.75,1],[0.5,1],[0.25,1],[0,1],[0,0.75],[0,0.5],[0,0.25]];outlineConnect=0;gradientColor=none;html=1;whiteSpace=wrap;fontSize=20;fontStyle=1;shape=mxgraph.aws4.group;grIcon=mxgraph.aws4.group_ec2_instance_contents;strokeColor=#D86613;fillColor=none;verticalAlign=top;align=left;spacingLeft=30;fontColor=#D86613;dashed=0;" vertex="1" parent="1">
          <mxGeometry x="811.53" y="610" width="193.25" height="260" as="geometry" />
        </mxCell>
        <mxCell id="lZyyrw_v1k-XXsasgZWi-16" value="MongoDB" style="sketch=0;outlineConnect=0;fontColor=#232F3E;gradientColor=none;fillColor=#527FFF;strokeColor=none;dashed=0;verticalLabelPosition=bottom;verticalAlign=top;align=center;html=1;fontSize=14;fontStyle=1;aspect=fixed;pointerEvents=1;shape=mxgraph.aws4.rds_instance;" vertex="1" parent="1">
          <mxGeometry x="871.4" y="899.5" width="78" height="78" as="geometry" />
        </mxCell>
        <mxCell id="lZyyrw_v1k-XXsasgZWi-17" value="Bithumb API&#xa;Web Socket" style="rounded=1;arcSize=10;strokeColor=none;fillColor=#DBDBDB;gradientColor=none;fontStyle=1;fontSize=14;" vertex="1" parent="1">
          <mxGeometry x="855.65" y="725" width="109.5" height="60" as="geometry" />
        </mxCell>
        <mxCell id="lZyyrw_v1k-XXsasgZWi-18" value="Kafka&#xa;Publisher" style="rounded=1;arcSize=10;strokeColor=none;fillColor=#DBDBDB;gradientColor=none;fontStyle=1;fontSize=14;" vertex="1" parent="1">
          <mxGeometry x="855.65" y="790" width="109.5" height="60" as="geometry" />
        </mxCell>
        <mxCell id="lZyyrw_v1k-XXsasgZWi-19" value="" style="edgeStyle=orthogonalEdgeStyle;html=1;endArrow=open;elbow=vertical;startArrow=none;endFill=0;strokeColor=#545B64;rounded=0;fontSize=14;strokeWidth=2;exitX=0;exitY=0.5;exitDx=0;exitDy=0;fontStyle=0" edge="1" parent="1" source="lZyyrw_v1k-XXsasgZWi-18" target="lZyyrw_v1k-XXsasgZWi-13">
          <mxGeometry x="0.0164" y="133" width="100" relative="1" as="geometry">
            <mxPoint x="711.28" y="480.0000000000002" as="sourcePoint" />
            <mxPoint x="981.28" y="480.0000000000002" as="targetPoint" />
            <mxPoint x="-1" as="offset" />
            <Array as="points">
              <mxPoint x="777.78" y="820" />
              <mxPoint x="777.78" y="760" />
            </Array>
          </mxGeometry>
        </mxCell>
        <mxCell id="lZyyrw_v1k-XXsasgZWi-25" value="Ticker" style="edgeLabel;html=1;align=center;verticalAlign=middle;resizable=0;points=[];fontSize=14;fontStyle=1" vertex="1" connectable="0" parent="lZyyrw_v1k-XXsasgZWi-19">
          <mxGeometry x="-0.133" y="2" relative="1" as="geometry">
            <mxPoint as="offset" />
          </mxGeometry>
        </mxCell>
        <mxCell id="lZyyrw_v1k-XXsasgZWi-21" value="Bithumb API Server" style="sketch=0;points=[[0,0,0],[0.25,0,0],[0.5,0,0],[0.75,0,0],[1,0,0],[0,1,0],[0.25,1,0],[0.5,1,0],[0.75,1,0],[1,1,0],[0,0.25,0],[0,0.5,0],[0,0.75,0],[1,0.25,0],[1,0.5,0],[1,0.75,0]];outlineConnect=0;fontColor=#232F3E;gradientColor=#F78E04;gradientDirection=north;fillColor=#D05C17;strokeColor=#ffffff;dashed=0;verticalLabelPosition=bottom;verticalAlign=top;align=center;html=1;fontSize=14;fontStyle=1;aspect=fixed;shape=mxgraph.aws4.resourceIcon;resIcon=mxgraph.aws4.elemental;" vertex="1" parent="1">
          <mxGeometry x="1019.28" y="230" width="78" height="78" as="geometry" />
        </mxCell>
        <mxCell id="lZyyrw_v1k-XXsasgZWi-23" value="" style="edgeStyle=orthogonalEdgeStyle;html=1;endArrow=block;elbow=vertical;startArrow=block;startFill=1;endFill=1;strokeColor=#FF3333;rounded=0;fontSize=14;entryX=1;entryY=0.5;entryDx=0;entryDy=0;entryPerimeter=0;exitX=1;exitY=0.5;exitDx=0;exitDy=0;" edge="1" parent="1" source="lZyyrw_v1k-XXsasgZWi-17" target="lZyyrw_v1k-XXsasgZWi-21">
          <mxGeometry width="100" relative="1" as="geometry">
            <mxPoint x="1067.78" y="610" as="sourcePoint" />
            <mxPoint x="1167.78" y="610" as="targetPoint" />
            <Array as="points">
              <mxPoint x="1177.78" y="755" />
              <mxPoint x="1177.78" y="269" />
            </Array>
          </mxGeometry>
        </mxCell>
        <mxCell id="lZyyrw_v1k-XXsasgZWi-29" value="Ticker" style="edgeLabel;html=1;align=center;verticalAlign=middle;resizable=0;points=[];fontSize=14;fontStyle=1" vertex="1" connectable="0" parent="lZyyrw_v1k-XXsasgZWi-23">
          <mxGeometry x="-0.0566" y="4" relative="1" as="geometry">
            <mxPoint x="-129" y="122" as="offset" />
          </mxGeometry>
        </mxCell>
        <mxCell id="lZyyrw_v1k-XXsasgZWi-24" value="" style="edgeStyle=orthogonalEdgeStyle;html=1;endArrow=block;elbow=vertical;startArrow=block;startFill=1;endFill=1;strokeColor=#FF3333;rounded=0;fontSize=14;exitX=1;exitY=0.5;exitDx=0;exitDy=0;" edge="1" parent="1" source="lZyyrw_v1k-XXsasgZWi-8" target="lZyyrw_v1k-XXsasgZWi-21">
          <mxGeometry width="100" relative="1" as="geometry">
            <mxPoint x="972.8999999999999" y="732" as="sourcePoint" />
            <mxPoint x="1147.78" y="290" as="targetPoint" />
            <Array as="points">
              <mxPoint x="625.78" y="820" />
              <mxPoint x="707.78" y="820" />
              <mxPoint x="707.78" y="1010" />
              <mxPoint x="1167.78" y="1010" />
              <mxPoint x="1167.78" y="290" />
            </Array>
          </mxGeometry>
        </mxCell>
        <mxCell id="lZyyrw_v1k-XXsasgZWi-30" value="거래" style="edgeLabel;html=1;align=center;verticalAlign=middle;resizable=0;points=[];fontSize=14;fontStyle=1" vertex="1" connectable="0" parent="lZyyrw_v1k-XXsasgZWi-24">
          <mxGeometry x="-0.0052" y="2" relative="1" as="geometry">
            <mxPoint x="-407" y="-82" as="offset" />
          </mxGeometry>
        </mxCell>
        <mxCell id="lZyyrw_v1k-XXsasgZWi-31" value="&lt;font style=&quot;font-size: 20px&quot;&gt;회원서비스 EC2&amp;nbsp;&lt;/font&gt;" style="points=[[0,0],[0.25,0],[0.5,0],[0.75,0],[1,0],[1,0.25],[1,0.5],[1,0.75],[1,1],[0.75,1],[0.5,1],[0.25,1],[0,1],[0,0.75],[0,0.5],[0,0.25]];outlineConnect=0;gradientColor=none;html=1;whiteSpace=wrap;fontSize=20;fontStyle=1;shape=mxgraph.aws4.group;grIcon=mxgraph.aws4.group_ec2_instance_contents;strokeColor=#D86613;fillColor=none;verticalAlign=top;align=left;spacingLeft=30;fontColor=#D86613;dashed=0;" vertex="1" parent="1">
          <mxGeometry x="142.65" y="610" width="193.25" height="260" as="geometry" />
        </mxCell>
        <mxCell id="lZyyrw_v1k-XXsasgZWi-32" value="MariaDB" style="sketch=0;outlineConnect=0;fontColor=#232F3E;gradientColor=none;fillColor=#527FFF;strokeColor=none;dashed=0;verticalLabelPosition=bottom;verticalAlign=top;align=center;html=1;fontSize=14;fontStyle=1;aspect=fixed;pointerEvents=1;shape=mxgraph.aws4.rds_instance;" vertex="1" parent="1">
          <mxGeometry x="157.78" y="899.5" width="78" height="78" as="geometry" />
        </mxCell>
        <mxCell id="lZyyrw_v1k-XXsasgZWi-33" value="Bithumb API&#xa;Web Socket" style="rounded=1;arcSize=10;strokeColor=none;fillColor=#DBDBDB;gradientColor=none;fontStyle=1;fontSize=14;" vertex="1" parent="1">
          <mxGeometry x="184.53000000000003" y="795" width="109.5" height="60" as="geometry" />
        </mxCell>
        <mxCell id="lZyyrw_v1k-XXsasgZWi-35" value="Redis" style="sketch=0;aspect=fixed;html=1;points=[];align=center;image;fontSize=14;image=img/lib/mscae/Cache_Redis_Product.svg;fontStyle=1" vertex="1" parent="1">
          <mxGeometry x="248.86" y="902.5" width="89.29" height="75" as="geometry" />
        </mxCell>
        <mxCell id="lZyyrw_v1k-XXsasgZWi-41" value="" style="edgeStyle=orthogonalEdgeStyle;html=1;endArrow=block;elbow=vertical;startArrow=block;startFill=1;endFill=1;strokeColor=#FF3333;rounded=0;fontSize=14;entryX=1;entryY=0.25;entryDx=0;entryDy=0;entryPerimeter=0;exitX=1;exitY=0.5;exitDx=0;exitDy=0;" edge="1" parent="1" source="lZyyrw_v1k-XXsasgZWi-33" target="lZyyrw_v1k-XXsasgZWi-21">
          <mxGeometry width="100" relative="1" as="geometry">
            <mxPoint x="304.27999999999986" y="777" as="sourcePoint" />
            <mxPoint x="732.66" y="564" as="targetPoint" />
            <Array as="points">
              <mxPoint x="427.78" y="820" />
              <mxPoint x="427.78" y="1030" />
              <mxPoint x="1197.78" y="1030" />
              <mxPoint x="1197.78" y="250" />
            </Array>
          </mxGeometry>
        </mxCell>
        <mxCell id="lZyyrw_v1k-XXsasgZWi-42" value="API 인증" style="edgeLabel;html=1;align=center;verticalAlign=middle;resizable=0;points=[];fontSize=14;fontStyle=1" vertex="1" connectable="0" parent="lZyyrw_v1k-XXsasgZWi-41">
          <mxGeometry x="-0.0052" y="2" relative="1" as="geometry">
            <mxPoint x="-663" y="-203" as="offset" />
          </mxGeometry>
        </mxCell>
        <mxCell id="lZyyrw_v1k-XXsasgZWi-45" value="REST" style="rounded=1;arcSize=10;strokeColor=none;fillColor=#DBDBDB;gradientColor=none;fontStyle=1;fontSize=14;" vertex="1" parent="1">
          <mxGeometry x="184.53000000000003" y="730" width="109.5" height="60" as="geometry" />
        </mxCell>
        <mxCell id="lZyyrw_v1k-XXsasgZWi-46" value="&lt;font style=&quot;font-size: 14px&quot;&gt;&lt;b&gt;Eureka&lt;/b&gt;&lt;/font&gt;" style="sketch=0;points=[[0,0,0],[0.25,0,0],[0.5,0,0],[0.75,0,0],[1,0,0],[0,1,0],[0.25,1,0],[0.5,1,0],[0.75,1,0],[1,1,0],[0,0.25,0],[0,0.5,0],[0,0.75,0],[1,0.25,0],[1,0.5,0],[1,0.75,0]];outlineConnect=0;fontColor=#232F3E;gradientColor=#4AB29A;gradientDirection=north;fillColor=#116D5B;strokeColor=#ffffff;dashed=0;verticalLabelPosition=bottom;verticalAlign=top;align=center;html=1;fontSize=12;fontStyle=0;aspect=fixed;shape=mxgraph.aws4.resourceIcon;resIcon=mxgraph.aws4.application_discovery_service;" vertex="1" parent="1">
          <mxGeometry x="280.28" y="421" width="102" height="102" as="geometry" />
        </mxCell>
        <mxCell id="lZyyrw_v1k-XXsasgZWi-49" value="API Gateway" style="sketch=0;points=[[0,0,0],[0.25,0,0],[0.5,0,0],[0.75,0,0],[1,0,0],[0,1,0],[0.25,1,0],[0.5,1,0],[0.75,1,0],[1,1,0],[0,0.25,0],[0,0.5,0],[0,0.75,0],[1,0.25,0],[1,0.5,0],[1,0.75,0]];outlineConnect=0;fontColor=#232F3E;gradientColor=#FF4F8B;gradientDirection=north;fillColor=#BC1356;strokeColor=#ffffff;dashed=0;verticalLabelPosition=bottom;verticalAlign=top;align=center;html=1;fontSize=14;fontStyle=1;aspect=fixed;shape=mxgraph.aws4.resourceIcon;resIcon=mxgraph.aws4.api_gateway;" vertex="1" parent="1">
          <mxGeometry x="645.28" y="400" width="93" height="93" as="geometry" />
        </mxCell>
        <mxCell id="lZyyrw_v1k-XXsasgZWi-51" value="" style="edgeStyle=orthogonalEdgeStyle;html=1;endArrow=block;elbow=vertical;startArrow=block;startFill=1;endFill=1;strokeColor=#545B64;rounded=0;fontSize=14;entryX=0;entryY=0.75;entryDx=0;entryDy=0;entryPerimeter=0;" edge="1" parent="1" target="lZyyrw_v1k-XXsasgZWi-49">
          <mxGeometry width="100" relative="1" as="geometry">
            <mxPoint x="237.78" y="610" as="sourcePoint" />
            <mxPoint x="597.41" y="560" as="targetPoint" />
            <Array as="points">
              <mxPoint x="237.78" y="570" />
              <mxPoint x="517.78" y="570" />
              <mxPoint x="517.78" y="470" />
            </Array>
          </mxGeometry>
        </mxCell>
        <mxCell id="lZyyrw_v1k-XXsasgZWi-52" value="회원가입, 로그인, 인증" style="edgeLabel;html=1;align=center;verticalAlign=middle;resizable=0;points=[];fontSize=14;fontStyle=1" vertex="1" connectable="0" parent="lZyyrw_v1k-XXsasgZWi-51">
          <mxGeometry x="-0.0052" y="2" relative="1" as="geometry">
            <mxPoint as="offset" />
          </mxGeometry>
        </mxCell>
        <mxCell id="lZyyrw_v1k-XXsasgZWi-53" value="" style="edgeStyle=orthogonalEdgeStyle;html=1;endArrow=block;elbow=vertical;startArrow=block;startFill=1;endFill=1;strokeColor=#545B64;rounded=0;fontSize=14;entryX=1;entryY=0.75;entryDx=0;entryDy=0;entryPerimeter=0;exitX=0.5;exitY=0;exitDx=0;exitDy=0;" edge="1" parent="1" source="lZyyrw_v1k-XXsasgZWi-5" target="lZyyrw_v1k-XXsasgZWi-49">
          <mxGeometry width="100" relative="1" as="geometry">
            <mxPoint x="247.78" y="620" as="sourcePoint" />
            <mxPoint x="558.28" y="505.25" as="targetPoint" />
            <Array as="points">
              <mxPoint x="570.78" y="590" />
              <mxPoint x="787.78" y="590" />
              <mxPoint x="787.78" y="470" />
            </Array>
          </mxGeometry>
        </mxCell>
        <mxCell id="lZyyrw_v1k-XXsasgZWi-54" value="거래설정, 봇 시작/중지" style="edgeLabel;html=1;align=center;verticalAlign=middle;resizable=0;points=[];fontSize=14;fontStyle=1" vertex="1" connectable="0" parent="lZyyrw_v1k-XXsasgZWi-53">
          <mxGeometry x="-0.0052" y="2" relative="1" as="geometry">
            <mxPoint y="-24" as="offset" />
          </mxGeometry>
        </mxCell>
        <mxCell id="lZyyrw_v1k-XXsasgZWi-61" value="1" style="rounded=1;whiteSpace=wrap;html=1;fillColor=#007CBD;strokeColor=none;fontColor=#FFFFFF;fontStyle=1;fontSize=22;" vertex="1" parent="1">
          <mxGeometry x="144.53" y="642.5" width="40" height="38" as="geometry" />
        </mxCell>
        <mxCell id="lZyyrw_v1k-XXsasgZWi-62" value="3" style="rounded=1;whiteSpace=wrap;html=1;fillColor=#007CBD;strokeColor=none;fontColor=#FFFFFF;fontStyle=1;fontSize=22;" vertex="1" parent="1">
          <mxGeometry x="818.28" y="687" width="40" height="38" as="geometry" />
        </mxCell>
        <mxCell id="lZyyrw_v1k-XXsasgZWi-67" style="edgeStyle=orthogonalEdgeStyle;rounded=0;orthogonalLoop=1;jettySize=auto;html=1;fontSize=14;strokeColor=#000000;strokeWidth=1;exitX=0.151;exitY=1.05;exitDx=0;exitDy=0;exitPerimeter=0;" edge="1" parent="1" source="lZyyrw_v1k-XXsasgZWi-66" target="lZyyrw_v1k-XXsasgZWi-49">
          <mxGeometry relative="1" as="geometry" />
        </mxCell>
        <mxCell id="lZyyrw_v1k-XXsasgZWi-66" value="User" style="points=[[0.35,0,0],[0.98,0.51,0],[1,0.71,0],[0.67,1,0],[0,0.795,0],[0,0.65,0]];verticalLabelPosition=bottom;sketch=0;html=1;verticalAlign=top;aspect=fixed;align=center;pointerEvents=1;shape=mxgraph.cisco19.user;fillColor=#005073;strokeColor=none;fontSize=14;" vertex="1" parent="1">
          <mxGeometry x="645.28" y="185.5" width="93" height="97" as="geometry" />
        </mxCell>
        <mxCell id="lZyyrw_v1k-XXsasgZWi-68" value="MVP" style="text;html=1;strokeColor=none;fillColor=none;align=center;verticalAlign=middle;whiteSpace=wrap;rounded=0;fontSize=14;" vertex="1" parent="1">
          <mxGeometry x="60" y="119.5" width="40" height="20" as="geometry" />
        </mxCell>
      </root>
    </mxGraphModel>
  </diagram>
</mxfile>
